<?xml version="1.0" standalone="no"?>
<!DOCTYPE svg PUBLIC "-//W3C//DTD SVG 20010904//EN"
 "http://www.w3.org/TR/2001/REC-SVG-20010904/DTD/svg10.dtd">
<svg version="1.0" xmlns="http://www.w3.org/2000/svg"
 width="500.000000pt" height="500.000000pt" viewBox="0 0 500.000000 500.000000"
 preserveAspectRatio="xMidYMid meet">

<g transform="translate(0.000000,500.000000) scale(0.100000,-0.100000)"
fill="#000000" stroke="none">
<path d="M2355 3865 c-264 -49 -508 -174 -703 -359 -96 -92 -222 -249 -222
-276 0 -22 20 -40 46 -40 15 0 32 16 56 53 134 200 349 372 586 467 147 59
251 80 428 87 118 4 175 2 255 -12 411 -68 761 -328 949 -703 47 -94 54 -103
77 -100 47 6 49 27 9 113 -138 299 -407 555 -721 686 -169 71 -273 91 -490 95
-138 2 -212 -1 -270 -11z"/>
<path d="M2544 3756 c-10 -26 4 -48 28 -44 17 2 23 10 23 28 0 18 -6 26 -23
28 -13 2 -25 -3 -28 -12z"/>
<path d="M2662 3761 c-21 -13 -10 -46 16 -49 27 -4 40 22 22 43 -14 17 -20 18
-38 6z"/>
<path d="M2436 3743 c-8 -21 17 -48 38 -40 9 4 16 18 16 32 0 20 -5 25 -24 25
-13 0 -27 -8 -30 -17z"/>
<path d="M2766 3744 c-17 -16 -12 -40 9 -48 8 -3 21 2 29 10 8 8 13 21 10 29
-8 21 -32 26 -48 9z"/>
<path d="M2342 3741 c-21 -13 -10 -46 16 -49 27 -4 40 22 22 43 -14 17 -20 18
-38 6z"/>
<path d="M2863 3714 c-3 -8 2 -23 11 -32 15 -15 17 -15 32 0 21 21 11 48 -16
48 -11 0 -23 -7 -27 -16z"/>
<path d="M2226 3704 c-9 -22 17 -49 39 -40 10 3 15 15 13 28 -4 29 -42 37 -52
12z"/>
<path d="M2964 3685 c-4 -9 0 -23 8 -31 20 -20 50 -7 46 20 -4 26 -45 35 -54
11z"/>
<path d="M2130 3676 c-18 -22 -5 -48 22 -44 17 2 23 10 23 28 0 29 -26 38 -45
16z"/>
<path d="M3077 3659 c-20 -12 -22 -32 -3 -48 18 -15 46 -4 46 19 0 26 -22 40
-43 29z"/>
<path d="M2035 3637 c-18 -14 -12 -42 10 -51 8 -3 21 2 29 10 28 28 -6 64 -39
41z"/>
<path d="M3172 3611 c-21 -13 -10 -46 16 -49 27 -4 40 22 22 43 -14 17 -20 18
-38 6z"/>
<path d="M1933 3574 c-3 -8 2 -23 11 -32 15 -15 17 -15 32 0 21 21 11 48 -16
48 -11 0 -23 -7 -27 -16z"/>
<path d="M2474 3565 c17 -69 17 -75 -13 -143 -17 -39 -31 -84 -31 -102 0 -32
21 -82 48 -112 25 -29 31 -20 15 24 -18 53 -13 108 17 174 27 61 22 110 -16
151 -21 23 -24 25 -20 8z"/>
<path d="M3254 3546 c-10 -26 4 -48 28 -44 17 2 23 10 23 28 0 18 -6 26 -23
28 -13 2 -25 -3 -28 -12z"/>
<path d="M1844 3515 c-4 -9 0 -23 8 -31 20 -20 50 -7 46 20 -4 26 -45 35 -54
11z"/>
<path d="M3342 3483 c-13 -26 -4 -43 23 -43 27 0 40 26 24 46 -16 19 -37 17
-47 -3z"/>
<path d="M1764 3455 c-9 -23 3 -45 26 -45 25 0 37 25 20 45 -16 19 -39 19 -46
0z"/>
<path d="M3426 3414 c-9 -8 -16 -17 -16 -19 0 -2 7 -11 16 -19 18 -18 54 -6
54 19 0 25 -36 37 -54 19z"/>
<path d="M2307 3380 c-61 -72 -61 -165 -1 -262 53 -86 59 -178 18 -283 -6 -17
-4 -17 20 5 63 57 92 143 75 220 -6 25 -28 73 -50 107 -45 68 -59 140 -41 206
6 20 9 37 7 37 -2 0 -14 -13 -28 -30z"/>
<path d="M1683 3374 c-3 -8 2 -23 11 -32 15 -15 17 -15 32 0 21 21 11 48 -16
48 -11 0 -23 -7 -27 -16z"/>
<path d="M3494 3335 c-4 -8 -3 -22 0 -31 8 -21 50 -14 54 10 6 31 -43 50 -54
21z"/>
<path d="M1617 3303 c-13 -12 -7 -41 10 -47 21 -8 48 17 40 38 -6 16 -38 22
-50 9z"/>
<path d="M2766 3288 c-8 -14 -16 -66 -20 -130 -5 -87 -4 -114 9 -138 13 -25
14 -51 4 -197 -14 -229 -15 -588 -1 -638 21 -75 122 -142 173 -114 17 9 17 12
-3 57 -13 30 -22 77 -26 130 -4 78 -3 82 16 82 34 0 78 -54 149 -183 107 -191
199 -268 317 -267 90 2 216 91 216 153 0 27 -21 20 -79 -23 -121 -91 -209 -30
-345 239 l-75 147 54 42 c70 53 98 107 99 188 1 72 -15 98 -75 115 -94 29
-169 -26 -249 -182 -28 -54 -53 -99 -55 -99 -4 0 0 44 21 259 8 79 14 164 14
190 0 32 7 57 24 81 20 30 24 53 31 152 6 110 6 117 -14 137 -18 18 -33 21
-96 21 -66 0 -76 -2 -89 -22z m29 -145 c-10 -118 -27 -105 -19 15 3 53 8 104
12 112 10 26 14 -41 7 -127z m38 30 c-6 -114 -23 -167 -23 -71 0 80 12 178 21
178 4 0 5 -48 2 -107z m32 -30 c-4 -51 -11 -93 -16 -93 -10 0 -2 193 9 220 11
28 14 -32 7 -127z m41 81 c-3 -26 -6 -75 -6 -110 0 -36 -4 -64 -10 -64 -11 0
-13 88 -4 168 4 28 11 52 17 52 6 0 7 -18 3 -46z m29 -91 c-4 -46 -11 -83 -16
-83 -9 0 -2 184 9 210 10 26 14 -41 7 -127z m172 -487 c-6 -61 -25 -103 -73
-162 -32 -40 -99 -82 -111 -70 -10 10 38 139 73 198 38 62 67 88 98 88 17 0
18 -6 13 -54z"/>
<path d="M3560 3236 c0 -29 28 -42 48 -22 20 20 8 46 -23 46 -20 0 -25 -5 -25
-24z"/>
<path d="M3975 3238 c-2 -7 -13 -96 -25 -198 -26 -220 -25 -217 -47 -199 -25
22 -120 16 -176 -11 -117 -55 -200 -231 -201 -425 -1 -155 50 -226 170 -233
59 -4 63 -3 103 34 23 20 54 58 68 82 l27 45 21 -64 c29 -87 48 -121 89 -157
33 -29 91 -50 103 -38 3 3 -1 43 -10 88 -48 245 -49 549 -2 803 16 83 29 170
29 195 1 44 0 46 -44 68 -49 24 -98 29 -105 10z m-107 -520 c2 -58 6 -68 21
-68 17 0 18 -7 13 -72 -5 -77 -35 -174 -84 -273 -52 -104 -75 -117 -108 -62
-38 62 -22 291 30 429 26 71 70 121 102 116 21 -3 23 -9 26 -70z"/>
<path d="M3633 3173 c-18 -6 -16 -50 2 -57 8 -3 21 2 29 10 24 24 1 58 -31 47z"/>
<path d="M1487 3096 c-257 -106 -430 -349 -469 -659 -22 -176 19 -402 94 -519
64 -101 151 -148 273 -148 98 0 144 19 202 82 50 55 64 82 92 172 29 94 28
137 -6 170 -26 27 -69 44 -80 32 -3 -3 -18 -54 -33 -113 -40 -157 -100 -283
-136 -283 -24 0 -73 51 -99 105 -48 97 -66 187 -72 355 -4 133 -2 170 17 259
50 243 174 449 289 481 54 15 65 -1 58 -80 -4 -36 -18 -114 -31 -175 -29 -126
-33 -175 -12 -175 22 0 76 68 108 137 81 172 77 341 -8 373 -44 17 -126 11
-187 -14z"/>
<path d="M3419 3085 c-15 -8 -30 -22 -34 -32 -7 -18 -7 -304 0 -311 9 -10 60
16 77 39 25 34 37 126 29 229 -5 75 -8 85 -26 87 -11 2 -32 -4 -46 -12z"/>
<path d="M3674 3065 c-8 -21 2 -45 19 -45 21 0 38 25 31 44 -8 20 -43 21 -50
1z"/>
<path d="M2460 2659 c-30 -12 -90 -68 -90 -84 0 -6 -13 -21 -30 -33 -43 -33
-69 -92 -82 -186 -19 -150 17 -301 84 -350 34 -24 110 -26 155 -3 71 37 126
139 150 275 25 144 8 296 -41 357 -18 22 -32 28 -72 31 -27 2 -60 -1 -74 -7z
m107 -101 c25 -48 29 -200 9 -316 -25 -143 -64 -208 -103 -169 -38 37 -27 397
15 483 21 46 55 46 79 2z"/>
<path d="M1965 2564 c-42 -21 -61 -41 -75 -73 -6 -16 -22 -33 -34 -39 -58 -26
-97 -198 -77 -342 23 -175 106 -244 231 -194 107 43 183 249 167 453 -8 98
-22 143 -53 181 -23 26 -32 30 -77 30 -29 0 -65 -7 -82 -16z m118 -86 c46 -61
30 -346 -25 -457 -29 -59 -53 -64 -73 -17 -20 46 -20 271 0 379 22 123 54 154
98 95z"/>
<path d="M3770 1984 c-175 -387 -532 -664 -960 -745 -97 -19 -348 -17 -450 4
-174 35 -340 103 -492 203 -40 26 -126 101 -192 167 -101 101 -122 118 -142
113 -42 -11 -30 -48 41 -130 101 -116 264 -240 413 -315 80 -40 243 -95 347
-116 44 -9 132 -19 195 -22 545 -27 1055 277 1296 772 30 61 54 117 54 126 0
21 -20 39 -45 39 -17 0 -30 -19 -65 -96z"/>
<path d="M3690 2015 c0 -31 26 -43 46 -23 20 20 7 48 -22 48 -19 0 -24 -5 -24
-25z"/>
<path d="M3644 1935 c-9 -23 3 -45 26 -45 25 0 37 25 20 45 -16 19 -39 19 -46
0z"/>
<path d="M3592 1848 c-7 -7 -12 -18 -12 -25 0 -15 30 -32 48 -26 17 7 15 50
-4 57 -20 8 -18 8 -32 -6z"/>
<path d="M2521 1799 c-18 -17 -22 -30 -19 -61 3 -37 3 -38 -12 -18 -13 17 -20
19 -42 11 -31 -12 -68 -57 -68 -83 0 -27 26 -74 45 -82 9 -3 28 -6 41 -6 22 0
24 -3 24 -55 0 -30 5 -55 10 -55 6 0 10 5 10 11 0 7 29 10 90 7 l90 -3 0 52 0
53 29 -6 c23 -5 35 -1 55 19 14 15 26 37 26 51 0 35 -39 76 -79 84 -28 6 -34
12 -37 37 -4 43 -37 65 -93 65 -34 0 -53 -6 -70 -21z m-14 -301 c-2 -13 -4 -3
-4 22 0 25 2 35 4 23 2 -13 2 -33 0 -45z m33 32 c0 -16 -2 -30 -4 -30 -2 0 -6
14 -8 30 -3 17 -1 30 4 30 4 0 8 -13 8 -30z"/>
<path d="M3524 1756 c-10 -26 4 -48 28 -44 17 2 23 10 23 28 0 18 -6 26 -23
28 -13 2 -25 -3 -28 -12z"/>
<path d="M1652 1728 c-17 -17 -15 -45 4 -52 19 -7 44 10 44 30 0 20 -34 36
-48 22z"/>
<path d="M3454 1675 c-9 -23 3 -45 25 -45 25 0 34 14 26 40 -7 23 -43 27 -51
5z"/>
<path d="M2887 1673 c-14 -13 -6 -24 13 -18 25 8 28 -16 4 -35 -8 -8 -20 -22
-25 -32 -9 -16 -6 -18 26 -18 19 0 35 5 35 10 0 6 -7 10 -15 10 -12 0 -12 4 2
28 9 16 14 36 10 45 -6 17 -38 23 -50 10z"/>
<path d="M2967 1673 c-14 -13 -7 -93 8 -99 23 -9 45 15 45 50 0 43 -31 72 -53
49z m33 -48 c0 -19 -4 -35 -10 -35 -5 0 -10 16 -10 35 0 19 5 35 10 35 6 0 10
-16 10 -35z"/>
<path d="M3047 1673 c-14 -13 -6 -24 13 -18 25 8 28 -16 4 -35 -8 -8 -20 -22
-25 -32 -9 -16 -6 -18 26 -18 19 0 35 5 35 10 0 6 -7 10 -15 10 -12 0 -12 4 2
28 9 16 14 36 10 45 -6 17 -38 23 -50 10z"/>
<path d="M3132 1641 c-27 -47 -27 -51 -3 -51 11 0 21 -6 24 -12 3 -9 9 -7 20
7 9 11 11 22 6 23 -5 2 -9 19 -9 38 0 44 -11 43 -38 -5z m18 -21 c0 -5 -5 -10
-11 -10 -5 0 -7 5 -4 10 3 6 8 10 11 10 2 0 4 -4 4 -10z"/>
<path d="M1720 1646 c-18 -22 -5 -48 22 -44 17 2 23 10 23 28 0 29 -26 38 -45
16z"/>
<path d="M2080 1600 c0 -49 1 -50 30 -50 17 0 30 5 30 10 0 6 -9 10 -20 10
-11 0 -20 5 -20 10 0 6 7 10 15 10 8 0 15 5 15 10 0 6 -7 10 -15 10 -8 0 -15
5 -15 10 0 6 9 10 21 10 11 0 17 5 14 10 -3 6 -17 10 -31 10 -22 0 -24 -4 -24
-50z"/>
<path d="M2164 1635 c-19 -15 -19 -15 4 -34 28 -24 28 -31 0 -31 -16 0 -19 -3
-11 -11 16 -16 53 -1 53 20 0 10 -10 26 -22 34 l-23 16 23 0 c13 1 20 5 17 11
-8 14 -18 13 -41 -5z"/>
<path d="M2225 1640 c-3 -5 1 -10 9 -10 12 0 16 -10 16 -40 0 -22 5 -40 10
-40 6 0 10 18 10 40 0 22 5 40 10 40 6 0 10 5 10 10 0 6 -13 10 -29 10 -17 0
-33 -4 -36 -10z"/>
<path d="M3382 1608 c-16 -16 -15 -33 4 -48 22 -19 54 12 38 37 -14 22 -27 26
-42 11z"/>
<path d="M1800 1575 c-18 -21 -5 -47 22 -43 26 3 37 36 16 49 -18 12 -24 11
-38 -6z"/>
<path d="M2296 1571 c-4 -5 -2 -12 3 -15 5 -4 12 -2 15 3 4 5 2 12 -3 15 -5 4
-12 2 -15 -3z"/>
<path d="M3294 1535 c-9 -23 3 -45 25 -45 23 0 35 28 20 46 -15 18 -38 18 -45
-1z"/>
<path d="M1884 1505 c-8 -21 2 -45 19 -45 20 0 40 27 33 45 -7 19 -45 20 -52
0z"/>
<path d="M3204 1475 c-9 -23 3 -45 25 -45 23 0 35 28 20 46 -15 18 -38 18 -45
-1z"/>
<path d="M1980 1455 c-17 -20 -5 -45 20 -45 11 0 23 7 26 15 6 15 -11 45 -26
45 -4 0 -13 -7 -20 -15z"/>
<path d="M3111 1427 c-17 -21 -3 -49 23 -45 15 2 21 10 21 28 0 28 -26 38 -44
17z"/>
<path d="M2074 1405 c-9 -23 3 -45 25 -45 23 0 35 28 20 46 -15 18 -38 18 -45
-1z"/>
<path d="M3016 1384 c-17 -16 -12 -40 9 -48 19 -7 46 20 39 39 -8 21 -32 26
-48 9z"/>
<path d="M2170 1365 c-10 -12 -10 -18 0 -30 7 -8 18 -15 25 -15 7 0 18 7 25
15 10 12 10 18 0 30 -7 8 -18 15 -25 15 -7 0 -18 -7 -25 -15z"/>
<path d="M2906 1344 c-9 -22 17 -49 39 -40 10 3 15 15 13 28 -4 29 -42 37 -52
12z"/>
<path d="M2274 1335 c-9 -23 3 -45 25 -45 25 0 34 14 26 40 -7 23 -43 27 -51
5z"/>
<path d="M2810 1325 c-17 -20 -5 -45 20 -45 11 0 23 7 26 15 6 15 -11 45 -26
45 -4 0 -13 -7 -20 -15z"/>
<path d="M2381 1317 c-17 -21 -3 -49 23 -45 15 2 21 10 21 28 0 28 -26 38 -44
17z"/>
<path d="M2492 1311 c-21 -13 -10 -46 16 -49 27 -4 40 22 22 43 -14 17 -20 18
-38 6z"/>
<path d="M2700 1305 c-11 -13 -11 -19 3 -32 21 -21 49 -9 45 19 -4 28 -30 35
-48 13z"/>
<path d="M2590 1285 c0 -31 26 -43 47 -22 21 21 9 47 -22 47 -20 0 -25 -5 -25
-25z"/>
</g>
</svg>
